<svg width="391" height="24" viewBox="0 0 391 24" fill="none" xmlns="http://www.w3.org/2000/svg">
<path d="M17.9423 17.816H6.74225L4.53425 23H0.24625L10.3263 0.599998H14.4223L24.5343 23H20.1823L17.9423 17.816ZM16.5662 14.552L12.3423 4.76L8.15025 14.552H16.5662ZM47.287 0.599998V23H43.863L31.511 7.832V23H27.383V0.599998H30.807L43.159 15.768V0.599998H47.287ZM53.2893 0.599998H63.0813C65.4706 0.599998 67.5933 1.06933 69.4493 2.008C71.3053 2.92533 72.7453 4.23733 73.7693 5.944C74.7933 7.62933 75.3053 9.58133 75.3053 11.8C75.3053 14.0187 74.7933 15.9813 73.7693 17.688C72.7453 19.3733 71.3053 20.6853 69.4493 21.624C67.5933 22.5413 65.4706 23 63.0813 23H53.2893V0.599998ZM62.8893 19.48C64.5319 19.48 65.9719 19.1707 67.2093 18.552C68.4679 17.912 69.4279 17.016 70.0893 15.864C70.7719 14.6907 71.1133 13.336 71.1133 11.8C71.1133 10.264 70.7719 8.92 70.0893 7.768C69.4279 6.59467 68.4679 5.69867 67.2093 5.08C65.9719 4.44 64.5319 4.12 62.8893 4.12H57.4493V19.48H62.8893ZM93.9423 17.816H82.7423L80.5343 23H76.2462L86.3263 0.599998H90.4223L100.534 23H96.1823L93.9423 17.816ZM92.5662 14.552L88.3423 4.76L84.1503 14.552H92.5662ZM123.959 23L123.927 8.152L116.567 20.44H114.711L107.351 8.344V23H103.383V0.599998H106.807L115.703 15.448L124.439 0.599998H127.863L127.895 23H123.959ZM150.746 19.512V23H133.946V0.599998H150.298V4.088H138.106V9.912H148.922V13.336H138.106V19.512H150.746ZM175.287 0.599998V23H171.863L159.511 7.832V23H155.383V0.599998H158.807L171.159 15.768V0.599998H175.287ZM185.833 4.12H178.409V0.599998H197.417V4.12H189.993V23H185.833V4.12ZM210.691 23.32C208.408 23.32 206.349 22.8293 204.515 21.848C202.68 20.8453 201.24 19.4693 200.195 17.72C199.149 15.9493 198.627 13.976 198.627 11.8C198.627 9.624 199.149 7.66133 200.195 5.912C201.24 4.14133 202.68 2.76533 204.515 1.784C206.349 0.781332 208.408 0.279999 210.691 0.279999C212.973 0.279999 215.032 0.781332 216.867 1.784C218.701 2.76533 220.141 4.13067 221.187 5.88C222.232 7.62933 222.755 9.60267 222.755 11.8C222.755 13.9973 222.232 15.9707 221.187 17.72C220.141 19.4693 218.701 20.8453 216.867 21.848C215.032 22.8293 212.973 23.32 210.691 23.32ZM210.691 19.672C212.184 19.672 213.528 19.3413 214.723 18.68C215.917 17.9973 216.856 17.0587 217.539 15.864C218.221 14.648 218.563 13.2933 218.563 11.8C218.563 10.3067 218.221 8.96267 217.539 7.768C216.856 6.552 215.917 5.61333 214.723 4.952C213.528 4.26933 212.184 3.928 210.691 3.928C209.197 3.928 207.853 4.26933 206.659 4.952C205.464 5.61333 204.525 6.552 203.843 7.768C203.16 8.96267 202.819 10.3067 202.819 11.8C202.819 13.2933 203.16 14.648 203.843 15.864C204.525 17.0587 205.464 17.9973 206.659 18.68C207.853 19.3413 209.197 19.672 210.691 19.672ZM236.008 0.599998H245.8C248.189 0.599998 250.312 1.06933 252.168 2.008C254.024 2.92533 255.464 4.23733 256.488 5.944C257.512 7.62933 258.024 9.58133 258.024 11.8C258.024 14.0187 257.512 15.9813 256.488 17.688C255.464 19.3733 254.024 20.6853 252.168 21.624C250.312 22.5413 248.189 23 245.8 23H236.008V0.599998ZM245.608 19.48C247.251 19.48 248.691 19.1707 249.928 18.552C251.187 17.912 252.147 17.016 252.808 15.864C253.491 14.6907 253.832 13.336 253.832 11.8C253.832 10.264 253.491 8.92 252.808 7.768C252.147 6.59467 251.187 5.69867 249.928 5.08C248.691 4.44 247.251 4.12 245.608 4.12H240.168V19.48H245.608ZM276.661 17.816H265.461L263.253 23H258.965L269.045 0.599998H273.141L283.253 23H278.901L276.661 17.816ZM275.285 14.552L271.061 4.76L266.869 14.552H275.285ZM305.41 23.32C303.127 23.32 301.068 22.8293 299.234 21.848C297.399 20.8453 295.959 19.4693 294.914 17.72C293.868 15.9493 293.346 13.976 293.346 11.8C293.346 9.624 293.868 7.66133 294.914 5.912C295.959 4.14133 297.399 2.76533 299.234 1.784C301.068 0.781332 303.127 0.279999 305.41 0.279999C307.692 0.279999 309.751 0.781332 311.586 1.784C313.42 2.76533 314.86 4.13067 315.906 5.88C316.951 7.62933 317.474 9.60267 317.474 11.8C317.474 13.9973 316.951 15.9707 315.906 17.72C314.86 19.4693 313.42 20.8453 311.586 21.848C309.751 22.8293 307.692 23.32 305.41 23.32ZM305.41 19.672C306.903 19.672 308.247 19.3413 309.442 18.68C310.636 17.9973 311.575 17.0587 312.258 15.864C312.94 14.648 313.282 13.2933 313.282 11.8C313.282 10.3067 312.94 8.96267 312.258 7.768C311.575 6.552 310.636 5.61333 309.442 4.952C308.247 4.26933 306.903 3.928 305.41 3.928C303.916 3.928 302.572 4.26933 301.378 4.952C300.183 5.61333 299.244 6.552 298.562 7.768C297.879 8.96267 297.538 10.3067 297.538 11.8C297.538 13.2933 297.879 14.648 298.562 15.864C299.244 17.0587 300.183 17.9973 301.378 18.68C302.572 19.3413 303.916 19.672 305.41 19.672ZM337.755 11.352C338.992 11.7573 339.974 12.44 340.699 13.4C341.424 14.3387 341.787 15.512 341.787 16.92C341.787 18.8613 341.04 20.3653 339.547 21.432C338.054 22.4773 335.878 23 333.019 23H321.883V0.599998H332.379C335.024 0.599998 337.062 1.12267 338.491 2.168C339.92 3.192 340.635 4.61067 340.635 6.424C340.635 7.53333 340.379 8.51467 339.867 9.368C339.355 10.2213 338.651 10.8827 337.755 11.352ZM326.043 3.864V10.04H331.931C333.382 10.04 334.491 9.784 335.259 9.272C336.048 8.73867 336.443 7.97067 336.443 6.968C336.443 5.944 336.048 5.176 335.259 4.664C334.491 4.13067 333.382 3.864 331.931 3.864H326.043ZM332.763 19.736C335.984 19.736 337.595 18.6587 337.595 16.504C337.595 14.3493 335.984 13.272 332.763 13.272H326.043V19.736H332.763ZM360.883 23L356.307 16.44C356.115 16.4613 355.827 16.472 355.443 16.472H350.387V23H346.227V0.599998H355.443C357.384 0.599998 359.069 0.919999 360.499 1.56C361.949 2.2 363.059 3.11733 363.827 4.312C364.595 5.50667 364.979 6.92533 364.979 8.568C364.979 10.2533 364.563 11.704 363.731 12.92C362.92 14.136 361.747 15.0427 360.211 15.64L365.363 23H360.883ZM360.787 8.568C360.787 7.13867 360.317 6.04 359.379 5.272C358.44 4.504 357.064 4.12 355.251 4.12H350.387V13.048H355.251C357.064 13.048 358.44 12.664 359.379 11.896C360.317 11.1067 360.787 9.99733 360.787 8.568ZM384.161 17.816H372.961L370.753 23H366.465L376.545 0.599998H380.641L390.753 23H386.401L384.161 17.816ZM382.785 14.552L378.561 4.76L374.369 14.552H382.785Z" fill="url(#paint0_linear_109_737)"/>
<defs>
<linearGradient id="paint0_linear_109_737" x1="-1.82074e-06" y1="12" x2="391" y2="12" gradientUnits="userSpaceOnUse">
<stop stop-color="#F1E178"/>
<stop offset="1" stop-color="#B87E13"/>
</linearGradient>
</defs>
</svg>
