<?xml version="1.0" encoding="utf-8"?>
<!-- Generator: Adobe Illustrator 23.0.2, SVG Export Plug-In . SVG Version: 6.00 Build 0)  -->
<svg version="1.1" id="Camada_1" xmlns="http://www.w3.org/2000/svg" xmlns:xlink="http://www.w3.org/1999/xlink" x="0px" y="0px"
	 viewBox="0 0 27 21" style="enable-background:new 0 0 27 21;" xml:space="preserve">
<style type="text/css">
	.st0{fill:none;stroke:#CEB380;stroke-linecap:round;stroke-linejoin:round;}
</style>
<path class="st0" d="M8.1,17.4c1.1,0,2-0.9,2-2c0-1.1-0.9-2-2-2s-2,0.9-2,2C6.1,16.5,7,17.4,8.1,17.4z"/>
<path class="st0" d="M18.1,17.4c1.1,0,2-0.9,2-2c0-1.1-0.9-2-2-2s-2,0.9-2,2C16.1,16.5,17,17.4,18.1,17.4z"/>
<path class="st0" d="M13.1,9.4v-5 M6.1,15.4h-2v-6l2-5h9l4,5h1c0.5,0,1,0.2,1.4,0.6c0.4,0.4,0.6,0.9,0.6,1.4v4h-2H6.1z M16.1,15.4
	h-6H16.1z M4.1,9.4h15H4.1z"/>
</svg>
