<svg width="65" height="65" viewBox="0 0 65 65" fill="none" xmlns="http://www.w3.org/2000/svg">
<path d="M10.8337 51.4583C13.8252 51.4583 16.2503 49.0332 16.2503 46.0417C16.2503 43.0501 13.8252 40.625 10.8337 40.625C7.84212 40.625 5.41699 43.0501 5.41699 46.0417C5.41699 49.0332 7.84212 51.4583 10.8337 51.4583Z" stroke="#56565E" stroke-width="3" stroke-linecap="round" stroke-linejoin="round"/>
<path d="M35.2087 51.4583C38.2002 51.4583 40.6253 49.0332 40.6253 46.0417C40.6253 43.0501 38.2002 40.625 35.2087 40.625C32.2171 40.625 29.792 43.0501 29.792 46.0417C29.792 49.0332 32.2171 51.4583 35.2087 51.4583Z" stroke="#56565E" stroke-width="3" stroke-linecap="round" stroke-linejoin="round"/>
<path d="M35.208 51.4583H10.833" stroke="#56565E" stroke-width="3" stroke-linecap="round" stroke-linejoin="round"/>
<path d="M10.833 40.625H35.208" stroke="#56565E" stroke-width="3" stroke-linecap="round" stroke-linejoin="round"/>
<path d="M21.667 32.4999V18.9583H27.0837C29.2385 18.9583 31.3052 19.8143 32.8289 21.338C34.3526 22.8617 35.2087 24.9284 35.2087 27.0833V40.6249" stroke="#56565E" stroke-width="3" stroke-linecap="round" stroke-linejoin="round"/>
<path d="M13.542 40.625V35.2083C13.542 34.49 13.8273 33.8012 14.3352 33.2933C14.8432 32.7853 15.532 32.5 16.2503 32.5H35.2087" stroke="#56565E" stroke-width="3" stroke-linecap="round" stroke-linejoin="round"/>
<path d="M57.1997 26.7584L48.7497 13.5417L35.208 27.0834" stroke="#56565E" stroke-width="3" stroke-linecap="round" stroke-linejoin="round"/>
<path d="M57.2001 26.7583C58.335 27.8946 59.1077 29.3417 59.4206 30.9168C59.7335 32.492 59.5726 34.1245 58.9582 35.6083C58.3439 37.0921 57.3036 38.3605 55.9687 39.2534C54.6339 40.1463 53.0644 40.6236 51.4585 40.625C49.3043 40.6231 47.2391 39.7658 45.7168 38.2416L57.2001 26.7583V26.7583Z" stroke="#56565E" stroke-width="3" stroke-linecap="round" stroke-linejoin="round"/>
</svg>
