<svg width="116" height="51" viewBox="0 0 116 51" fill="none" xmlns="http://www.w3.org/2000/svg">
<path d="M17.7424 18.7156C19.2687 18.7156 20.5373 18.2575 21.5487 17.3419C22.5594 16.4261 23.0654 15.2431 23.0654 13.7934C23.0654 12.4197 22.5594 11.2942 21.5487 10.4169C20.5373 9.53907 19.2685 9.10007 17.7424 9.10007H10.9887V18.7156H17.7424ZM19.8602 1.90735e-05C24.0951 1.90735e-05 27.4915 1.24001 30.0474 3.72017C32.6039 6.20033 33.8826 9.46258 33.8826 13.5073C33.8826 17.7044 32.5376 21.0719 29.8473 23.609C27.1572 26.1464 23.5609 27.4146 19.0587 27.4146H10.9887V38.3465H0V1.90735e-05H19.8602Z" fill="white"/>
<path d="M51.5103 11.7905L47.275 23.294H55.6884L51.5103 11.7905ZM61.1252 38.3467L59.0079 32.5089H43.8982L41.7236 38.3467H29.9333L45.3865 0.000202179H57.5199L72.9725 38.3467H61.1252Z" fill="white"/>
<path d="M95.4092 26.3847L88.2549 38.3467H75.4343L87.0532 19.1734L75.7783 0.000198364H88.5411L95.4092 11.7905L102.277 0.000198364H115.04L103.708 19.1734L115.384 38.3467H102.563L95.4092 26.3847Z" fill="white"/>
<path d="M4.63603 50.8716H0.0644531V44.734H4.62649V45.6224H1.04466V47.3539H4.35188V48.2332H1.04466V49.9833H4.63603V50.8716Z" fill="#B87E13"/>
<path d="M14.2653 50.8716H13.3121V46.9508L11.2054 50.8716H10.6006L8.49355 46.9508V50.8716H7.54077V44.734H8.40224L10.903 49.3783L13.4128 44.734H14.2653V50.8716Z" fill="#B87E13"/>
<path d="M20.13 47.8119C20.5089 47.8119 20.808 47.7128 21.028 47.5141C21.2476 47.3157 21.3578 47.0484 21.3578 46.7124C21.3578 46.3888 21.2476 46.1263 21.028 45.9246C20.808 45.7232 20.5089 45.6224 20.13 45.6224H18.3437V47.8119H20.13ZM20.13 44.734C20.8017 44.734 21.338 44.9154 21.738 45.2788C22.1377 45.6423 22.338 46.12 22.338 46.7124C22.338 47.3111 22.1377 47.7938 21.738 48.1601C21.338 48.5265 20.8017 48.7098 20.13 48.7098H18.3437V50.8718H17.3635V44.734H20.13Z" fill="#B87E13"/>
<path d="M27.9274 47.5372C28.2634 47.5372 28.5351 47.4502 28.7426 47.2762C28.9504 47.1018 29.0538 46.8716 29.0538 46.5843C29.0538 46.297 28.9504 46.0654 28.7426 45.888C28.5351 45.7109 28.2634 45.6225 27.9274 45.6225H26.0215V47.5372H27.9274ZM29.1 50.8715L26.9104 48.4256H26.0215V50.8715H25.0415V44.7339H27.9274C28.5562 44.7339 29.0647 44.9034 29.4528 45.2422C29.8405 45.5814 30.034 46.0287 30.034 46.5843C30.034 47.1096 29.8586 47.5382 29.5075 47.8713C29.1562 48.2041 28.6876 48.3857 28.1014 48.4166L30.3182 50.8715H29.1Z" fill="#B87E13"/>
<path d="M37.42 50.8716H32.8484V44.734H37.4104V45.6224H33.8286V47.3539H37.1356V48.2332H33.8286V49.9833H37.42V50.8716Z" fill="#B87E13"/>
<path d="M44.8963 50.8716H40.3247V44.734H44.8867V45.6224H41.3049V47.3539H44.612V48.2332H41.3049V49.9833H44.8963V50.8716Z" fill="#B87E13"/>
<path d="M53.3254 50.8716H52.4913L48.7812 46.4653V50.8716H47.801V44.734H48.6347L52.3356 49.2134V44.734H53.3254V50.8716Z" fill="#B87E13"/>
<path d="M58.5667 49.9831C59.2999 49.9831 59.8829 49.7818 60.3164 49.3784C60.75 48.9755 60.967 48.45 60.967 47.8028C60.967 47.1553 60.75 46.6301 60.3164 46.2269C59.8829 45.8238 59.2999 45.6225 58.5667 45.6225H57.4031V49.9831H58.5667ZM58.5667 44.7339C59.5987 44.7339 60.4219 45.0194 61.0357 45.5903C61.6496 46.1613 61.9561 46.8986 61.9561 47.8028C61.9561 48.7067 61.6496 49.444 61.0357 50.0152C60.4219 50.5862 59.5987 50.8715 58.5667 50.8715H56.4229V44.7339H58.5667Z" fill="#B87E13"/>
<path d="M64.761 44.734H65.7412V50.8716H64.761V44.734Z" fill="#B87E13"/>
<path d="M75.5631 50.8716H74.61V46.9508L72.5032 50.8716H71.8983L69.7912 46.9508V50.8716H68.8386V44.734H69.6999L72.2009 49.3783L74.7112 44.734H75.5631V50.8716Z" fill="#B87E13"/>
<path d="M83.2322 50.8716H78.6606V44.734H83.2227V45.6224H79.6409V47.3539H82.9482V48.2332H79.6409V49.9833H83.2322V50.8716Z" fill="#B87E13"/>
<path d="M91.6616 50.8716H90.8277L87.1174 46.4653V50.8716H86.1372V44.734H86.9713L90.6718 49.2134V44.734H91.6616V50.8716Z" fill="#B87E13"/>
<path d="M97.3888 45.6225V50.8717H96.3994V45.6225H94.2463V44.7341H99.5504V45.6225H97.3888Z" fill="#B87E13"/>
<path d="M106.34 49.4244C106.768 48.9905 106.982 48.4532 106.982 47.8119C106.982 47.1647 106.768 46.6225 106.34 46.1857C105.913 45.7491 105.388 45.5308 104.765 45.5308C104.142 45.5308 103.618 45.7491 103.193 46.1857C102.769 46.6225 102.557 47.1647 102.557 47.8119C102.557 48.4532 102.769 48.9905 103.193 49.4244C103.618 49.8578 104.142 50.075 104.765 50.075C105.388 50.075 105.913 49.8578 106.34 49.4244ZM107.041 45.5399C107.661 46.1627 107.971 46.9201 107.971 47.8119C107.971 48.7037 107.661 49.4576 107.041 50.075C106.421 50.6915 105.662 51 104.765 51C103.867 51 103.109 50.6915 102.493 50.075C101.876 49.4576 101.567 48.7037 101.567 47.8119C101.567 46.9138 101.876 46.1554 102.493 45.5353C103.109 44.9152 103.867 44.6058 104.765 44.6058C105.662 44.6058 106.421 44.9171 107.041 45.5399Z" fill="#B87E13"/>
<path d="M114.481 45.0728C114.905 45.3846 115.173 45.8055 115.283 46.3372L114.303 46.5385C114.247 46.215 114.092 45.954 113.835 45.7552C113.579 45.5568 113.267 45.4576 112.901 45.4576C112.54 45.4576 112.25 45.5445 112.031 45.7186C111.811 45.8925 111.701 46.1171 111.701 46.3917C111.701 46.6056 111.763 46.7738 111.888 46.8959C112.014 47.0179 112.211 47.1063 112.48 47.1615L113.808 47.4456C114.858 47.6775 115.384 48.2361 115.384 49.1219C115.384 49.6963 115.168 50.1527 114.738 50.4914C114.307 50.8307 113.737 50.9999 113.029 50.9999C112.351 50.9999 111.777 50.8397 111.307 50.519C110.837 50.198 110.565 49.751 110.491 49.1769L111.536 48.9568C111.609 49.3417 111.787 49.6333 112.067 49.8318C112.348 50.0306 112.699 50.1295 113.121 50.1295C113.524 50.1295 113.84 50.0428 114.069 49.8684C114.298 49.6945 114.413 49.4638 114.413 49.1769C114.413 48.9449 114.347 48.7679 114.215 48.6458C114.084 48.5235 113.863 48.4286 113.551 48.3615L112.213 48.0865C111.182 47.8484 110.666 47.2927 110.666 46.4193C110.666 45.8757 110.872 45.4379 111.284 45.1047C111.696 44.7716 112.241 44.6057 112.919 44.6057C113.536 44.6057 114.057 44.7611 114.481 45.0728Z" fill="#B87E13"/>
</svg>
