<svg width="151" height="24" viewBox="0 0 151 24" fill="none" xmlns="http://www.w3.org/2000/svg">
<path d="M9.56775 0.599998C11.5091 0.599998 13.1944 0.919999 14.6238 1.56C16.0744 2.2 17.1838 3.11733 17.9518 4.312C18.7198 5.50667 19.1038 6.92533 19.1038 8.568C19.1038 10.1893 18.7198 11.608 17.9518 12.824C17.1838 14.0187 16.0744 14.936 14.6238 15.576C13.1944 16.216 11.5091 16.536 9.56775 16.536H4.51175V23H0.35175V0.599998H9.56775ZM9.37575 13.016C11.1891 13.016 12.5651 12.632 13.5037 11.864C14.4424 11.096 14.9118 9.99733 14.9118 8.568C14.9118 7.13867 14.4424 6.04 13.5037 5.272C12.5651 4.504 11.1891 4.12 9.37575 4.12H4.51175V13.016H9.37575ZM23.258 0.599998H27.418V19.48H39.13V23H23.258V0.599998ZM57.0985 17.816H45.8985L43.6905 23H39.4025L49.4825 0.599998H53.5785L63.6905 23H59.3385L57.0985 17.816ZM55.7225 14.552L51.4985 4.76L47.3065 14.552H55.7225ZM86.4433 0.599998V23H83.0193L70.6673 7.832V23H66.5393V0.599998H69.9633L82.3153 15.768V0.599998H86.4433ZM96.9895 4.12H89.5655V0.599998H108.574V4.12H101.15V23H96.9895V4.12ZM125.099 17.816H113.899L111.691 23H107.402L117.483 0.599998H121.579L131.691 23H127.339L125.099 17.816ZM123.722 14.552L119.499 4.76L115.307 14.552H123.722ZM141.483 23.32C139.755 23.32 138.081 23.0747 136.459 22.584C134.859 22.0933 133.59 21.4427 132.651 20.632L134.091 17.4C135.009 18.1253 136.129 18.7227 137.451 19.192C138.795 19.64 140.139 19.864 141.483 19.864C143.147 19.864 144.385 19.5973 145.195 19.064C146.027 18.5307 146.443 17.8267 146.443 16.952C146.443 16.312 146.209 15.7893 145.739 15.384C145.291 14.9573 144.715 14.6267 144.011 14.392C143.307 14.1573 142.347 13.8907 141.131 13.592C139.425 13.1867 138.038 12.7813 136.971 12.376C135.926 11.9707 135.019 11.3413 134.251 10.488C133.505 9.61333 133.131 8.44 133.131 6.968C133.131 5.73067 133.462 4.61067 134.123 3.608C134.806 2.584 135.819 1.77333 137.163 1.176C138.529 0.578665 140.193 0.279999 142.155 0.279999C143.521 0.279999 144.865 0.450666 146.187 0.792C147.51 1.13333 148.651 1.624 149.611 2.264L148.299 5.496C147.318 4.92 146.294 4.48267 145.227 4.184C144.161 3.88533 143.126 3.736 142.123 3.736C140.481 3.736 139.254 4.01333 138.443 4.568C137.654 5.12267 137.259 5.85867 137.259 6.776C137.259 7.416 137.483 7.93867 137.931 8.344C138.401 8.74933 138.987 9.06933 139.691 9.304C140.395 9.53867 141.355 9.80533 142.571 10.104C144.235 10.488 145.601 10.8933 146.667 11.32C147.734 11.7253 148.641 12.3547 149.387 13.208C150.155 14.0613 150.539 15.2133 150.539 16.664C150.539 17.9013 150.198 19.0213 149.515 20.024C148.854 21.0267 147.841 21.8267 146.475 22.424C145.11 23.0213 143.446 23.32 141.483 23.32Z" fill="url(#paint0_linear_109_665)"/>
<defs>
<linearGradient id="paint0_linear_109_665" x1="148.5" y1="10" x2="-3" y2="10" gradientUnits="userSpaceOnUse">
<stop stop-color="#F1E178"/>
<stop offset="1" stop-color="#B87E13"/>
</linearGradient>
</defs>
</svg>
