<svg width="494" height="24" viewBox="0 0 494 24" fill="none" xmlns="http://www.w3.org/2000/svg">
<path d="M24.5036 0.599998L14.7436 23H10.6476L0.855625 0.599998H5.36763L12.8236 17.88L20.3436 0.599998H24.5036ZM26.8674 0.599998H31.0274V23H26.8674V0.599998ZM44.0301 23.32C42.3021 23.32 40.6275 23.0747 39.0061 22.584C37.4061 22.0933 36.1368 21.4427 35.1981 20.632L36.6381 17.4C37.5555 18.1253 38.6755 18.7227 39.9981 19.192C41.3421 19.64 42.6861 19.864 44.0301 19.864C45.6941 19.864 46.9315 19.5973 47.7421 19.064C48.5741 18.5307 48.9901 17.8267 48.9901 16.952C48.9901 16.312 48.7555 15.7893 48.2861 15.384C47.8381 14.9573 47.2621 14.6267 46.5581 14.392C45.8541 14.1573 44.8941 13.8907 43.6781 13.592C41.9715 13.1867 40.5848 12.7813 39.5181 12.376C38.4728 11.9707 37.5661 11.3413 36.7981 10.488C36.0515 9.61333 35.6781 8.44 35.6781 6.968C35.6781 5.73067 36.0088 4.61067 36.6701 3.608C37.3528 2.584 38.3661 1.77333 39.7101 1.176C41.0755 0.578665 42.7395 0.279999 44.7021 0.279999C46.0675 0.279999 47.4115 0.450666 48.7341 0.792C50.0568 1.13333 51.1981 1.624 52.1581 2.264L50.8461 5.496C49.8648 4.92 48.8408 4.48267 47.7741 4.184C46.7075 3.88533 45.6728 3.736 44.6701 3.736C43.0275 3.736 41.8008 4.01333 40.9901 4.568C40.2008 5.12267 39.8061 5.85867 39.8061 6.776C39.8061 7.416 40.0301 7.93867 40.4781 8.344C40.9475 8.74933 41.5341 9.06933 42.2381 9.304C42.9421 9.53867 43.9021 9.80533 45.1181 10.104C46.7821 10.488 48.1475 10.8933 49.2141 11.32C50.2808 11.7253 51.1875 12.3547 51.9341 13.208C52.7021 14.0613 53.0861 15.2133 53.0861 16.664C53.0861 17.9013 52.7448 19.0213 52.0621 20.024C51.4008 21.0267 50.3875 21.8267 49.0221 22.424C47.6568 23.0213 45.9928 23.32 44.0301 23.32ZM57.2111 0.599998H61.3711V23H57.2111V0.599998ZM71.9739 4.12H64.5499V0.599998H83.5579V4.12H76.1339V23H71.9739V4.12ZM103.48 19.512V23H86.6799V0.599998H103.032V4.088H90.8399V9.912H101.656V13.336H90.8399V19.512H103.48ZM136.865 0.599998V23H133.441L121.089 7.832V23H116.961V0.599998H120.385L132.737 15.768V0.599998H136.865ZM153.331 23.32C151.049 23.32 148.99 22.8293 147.155 21.848C145.321 20.8453 143.881 19.4693 142.835 17.72C141.79 15.9493 141.267 13.976 141.267 11.8C141.267 9.624 141.79 7.66133 142.835 5.912C143.881 4.14133 145.321 2.76533 147.155 1.784C148.99 0.781332 151.049 0.279999 153.331 0.279999C155.614 0.279999 157.673 0.781332 159.507 1.784C161.342 2.76533 162.782 4.13067 163.827 5.88C164.873 7.62933 165.395 9.60267 165.395 11.8C165.395 13.9973 164.873 15.9707 163.827 17.72C162.782 19.4693 161.342 20.8453 159.507 21.848C157.673 22.8293 155.614 23.32 153.331 23.32ZM153.331 19.672C154.825 19.672 156.169 19.3413 157.363 18.68C158.558 17.9973 159.497 17.0587 160.179 15.864C160.862 14.648 161.203 13.2933 161.203 11.8C161.203 10.3067 160.862 8.96267 160.179 7.768C159.497 6.552 158.558 5.61333 157.363 4.952C156.169 4.26933 154.825 3.928 153.331 3.928C151.838 3.928 150.494 4.26933 149.299 4.952C148.105 5.61333 147.166 6.552 146.483 7.768C145.801 8.96267 145.459 10.3067 145.459 11.8C145.459 13.2933 145.801 14.648 146.483 15.864C147.166 17.0587 148.105 17.9973 149.299 18.68C150.494 19.3413 151.838 19.672 153.331 19.672ZM176.749 23.32C175.021 23.32 173.346 23.0747 171.725 22.584C170.125 22.0933 168.856 21.4427 167.917 20.632L169.357 17.4C170.274 18.1253 171.394 18.7227 172.717 19.192C174.061 19.64 175.405 19.864 176.749 19.864C178.413 19.864 179.65 19.5973 180.461 19.064C181.293 18.5307 181.709 17.8267 181.709 16.952C181.709 16.312 181.474 15.7893 181.005 15.384C180.557 14.9573 179.981 14.6267 179.277 14.392C178.573 14.1573 177.613 13.8907 176.397 13.592C174.69 13.1867 173.304 12.7813 172.237 12.376C171.192 11.9707 170.285 11.3413 169.517 10.488C168.77 9.61333 168.397 8.44 168.397 6.968C168.397 5.73067 168.728 4.61067 169.389 3.608C170.072 2.584 171.085 1.77333 172.429 1.176C173.794 0.578665 175.458 0.279999 177.421 0.279999C178.786 0.279999 180.13 0.450666 181.453 0.792C182.776 1.13333 183.917 1.624 184.877 2.264L183.565 5.496C182.584 4.92 181.56 4.48267 180.493 4.184C179.426 3.88533 178.392 3.736 177.389 3.736C175.746 3.736 174.52 4.01333 173.709 4.568C172.92 5.12267 172.525 5.85867 172.525 6.776C172.525 7.416 172.749 7.93867 173.197 8.344C173.666 8.74933 174.253 9.06933 174.957 9.304C175.661 9.53867 176.621 9.80533 177.837 10.104C179.501 10.488 180.866 10.8933 181.933 11.32C183 11.7253 183.906 12.3547 184.653 13.208C185.421 14.0613 185.805 15.2133 185.805 16.664C185.805 17.9013 185.464 19.0213 184.781 20.024C184.12 21.0267 183.106 21.8267 181.741 22.424C180.376 23.0213 178.712 23.32 176.749 23.32ZM196.874 23.32C195.146 23.32 193.471 23.0747 191.85 22.584C190.25 22.0933 188.981 21.4427 188.042 20.632L189.482 17.4C190.399 18.1253 191.519 18.7227 192.842 19.192C194.186 19.64 195.53 19.864 196.874 19.864C198.538 19.864 199.775 19.5973 200.586 19.064C201.418 18.5307 201.834 17.8267 201.834 16.952C201.834 16.312 201.599 15.7893 201.13 15.384C200.682 14.9573 200.106 14.6267 199.402 14.392C198.698 14.1573 197.738 13.8907 196.522 13.592C194.815 13.1867 193.429 12.7813 192.362 12.376C191.317 11.9707 190.41 11.3413 189.642 10.488C188.895 9.61333 188.522 8.44 188.522 6.968C188.522 5.73067 188.853 4.61067 189.514 3.608C190.197 2.584 191.21 1.77333 192.554 1.176C193.919 0.578665 195.583 0.279999 197.546 0.279999C198.911 0.279999 200.255 0.450666 201.578 0.792C202.901 1.13333 204.042 1.624 205.002 2.264L203.69 5.496C202.709 4.92 201.685 4.48267 200.618 4.184C199.551 3.88533 198.517 3.736 197.514 3.736C195.871 3.736 194.645 4.01333 193.834 4.568C193.045 5.12267 192.65 5.85867 192.65 6.776C192.65 7.416 192.874 7.93867 193.322 8.344C193.791 8.74933 194.378 9.06933 195.082 9.304C195.786 9.53867 196.746 9.80533 197.962 10.104C199.626 10.488 200.991 10.8933 202.058 11.32C203.125 11.7253 204.031 12.3547 204.778 13.208C205.546 14.0613 205.93 15.2133 205.93 16.664C205.93 17.9013 205.589 19.0213 204.906 20.024C204.245 21.0267 203.231 21.8267 201.866 22.424C200.501 23.0213 198.837 23.32 196.874 23.32ZM220.519 23.32C218.236 23.32 216.178 22.8293 214.343 21.848C212.508 20.8453 211.068 19.4693 210.023 17.72C208.978 15.9493 208.455 13.976 208.455 11.8C208.455 9.624 208.978 7.66133 210.023 5.912C211.068 4.14133 212.508 2.76533 214.343 1.784C216.178 0.781332 218.236 0.279999 220.519 0.279999C222.802 0.279999 224.86 0.781332 226.695 1.784C228.53 2.76533 229.97 4.13067 231.015 5.88C232.06 7.62933 232.583 9.60267 232.583 11.8C232.583 13.9973 232.06 15.9707 231.015 17.72C229.97 19.4693 228.53 20.8453 226.695 21.848C224.86 22.8293 222.802 23.32 220.519 23.32ZM220.519 19.672C222.012 19.672 223.356 19.3413 224.551 18.68C225.746 17.9973 226.684 17.0587 227.367 15.864C228.05 14.648 228.391 13.2933 228.391 11.8C228.391 10.3067 228.05 8.96267 227.367 7.768C226.684 6.552 225.746 5.61333 224.551 4.952C223.356 4.26933 222.012 3.928 220.519 3.928C219.026 3.928 217.682 4.26933 216.487 4.952C215.292 5.61333 214.354 6.552 213.671 7.768C212.988 8.96267 212.647 10.3067 212.647 11.8C212.647 13.2933 212.988 14.648 213.671 15.864C214.354 17.0587 215.292 17.9973 216.487 18.68C217.682 19.3413 219.026 19.672 220.519 19.672ZM245.836 0.599998H255.628C258.017 0.599998 260.14 1.06933 261.996 2.008C263.852 2.92533 265.292 4.23733 266.316 5.944C267.34 7.62933 267.852 9.58133 267.852 11.8C267.852 14.0187 267.34 15.9813 266.316 17.688C265.292 19.3733 263.852 20.6853 261.996 21.624C260.14 22.5413 258.017 23 255.628 23H245.836V0.599998ZM255.436 19.48C257.079 19.48 258.519 19.1707 259.756 18.552C261.015 17.912 261.975 17.016 262.636 15.864C263.319 14.6907 263.66 13.336 263.66 11.8C263.66 10.264 263.319 8.92 262.636 7.768C261.975 6.59467 261.015 5.69867 259.756 5.08C258.519 4.44 257.079 4.12 255.436 4.12H249.996V19.48H255.436ZM289.074 19.512V23H272.274V0.599998H288.626V4.088H276.434V9.912H287.25V13.336H276.434V19.512H289.074ZM303.985 23.32C301.724 23.32 299.676 22.8293 297.841 21.848C296.028 20.8453 294.599 19.4693 293.553 17.72C292.529 15.9707 292.017 13.9973 292.017 11.8C292.017 9.60267 292.54 7.62933 293.585 5.88C294.631 4.13067 296.06 2.76533 297.873 1.784C299.708 0.781332 301.756 0.279999 304.017 0.279999C305.852 0.279999 307.527 0.599999 309.041 1.24C310.556 1.88 311.836 2.808 312.881 4.024L310.193 6.552C308.572 4.80267 306.577 3.928 304.209 3.928C302.673 3.928 301.297 4.26933 300.081 4.952C298.865 5.61333 297.916 6.54133 297.233 7.736C296.551 8.93067 296.209 10.2853 296.209 11.8C296.209 13.3147 296.551 14.6693 297.233 15.864C297.916 17.0587 298.865 17.9973 300.081 18.68C301.297 19.3413 302.673 19.672 304.209 19.672C306.577 19.672 308.572 18.7867 310.193 17.016L312.881 19.576C311.836 20.792 310.545 21.72 309.009 22.36C307.495 23 305.82 23.32 303.985 23.32ZM326.863 23.32C324.58 23.32 322.521 22.8293 320.687 21.848C318.852 20.8453 317.412 19.4693 316.367 17.72C315.321 15.9493 314.799 13.976 314.799 11.8C314.799 9.624 315.321 7.66133 316.367 5.912C317.412 4.14133 318.852 2.76533 320.687 1.784C322.521 0.781332 324.58 0.279999 326.863 0.279999C329.145 0.279999 331.204 0.781332 333.039 1.784C334.873 2.76533 336.313 4.13067 337.359 5.88C338.404 7.62933 338.927 9.60267 338.927 11.8C338.927 13.9973 338.404 15.9707 337.359 17.72C336.313 19.4693 334.873 20.8453 333.039 21.848C331.204 22.8293 329.145 23.32 326.863 23.32ZM326.863 19.672C328.356 19.672 329.7 19.3413 330.895 18.68C332.089 17.9973 333.028 17.0587 333.711 15.864C334.393 14.648 334.735 13.2933 334.735 11.8C334.735 10.3067 334.393 8.96267 333.711 7.768C333.028 6.552 332.089 5.61333 330.895 4.952C329.7 4.26933 328.356 3.928 326.863 3.928C325.369 3.928 324.025 4.26933 322.831 4.952C321.636 5.61333 320.697 6.552 320.015 7.768C319.332 8.96267 318.991 10.3067 318.991 11.8C318.991 13.2933 319.332 14.648 320.015 15.864C320.697 17.0587 321.636 17.9973 322.831 18.68C324.025 19.3413 325.369 19.672 326.863 19.672ZM357.992 23L353.416 16.44C353.224 16.4613 352.936 16.472 352.552 16.472H347.496V23H343.336V0.599998H352.552C354.493 0.599998 356.179 0.919999 357.608 1.56C359.059 2.2 360.168 3.11733 360.936 4.312C361.704 5.50667 362.088 6.92533 362.088 8.568C362.088 10.2533 361.672 11.704 360.84 12.92C360.029 14.136 358.856 15.0427 357.32 15.64L362.472 23H357.992ZM357.896 8.568C357.896 7.13867 357.427 6.04 356.488 5.272C355.549 4.504 354.173 4.12 352.36 4.12H347.496V13.048H352.36C354.173 13.048 355.549 12.664 356.488 11.896C357.427 11.1067 357.896 9.99733 357.896 8.568ZM381.27 17.816H370.07L367.862 23H363.574L373.654 0.599998H377.75L387.862 23H383.51L381.27 17.816ZM379.894 14.552L375.67 4.76L371.478 14.552H379.894ZM390.711 0.599998H400.503C402.892 0.599998 405.015 1.06933 406.871 2.008C408.727 2.92533 410.167 4.23733 411.191 5.944C412.215 7.62933 412.727 9.58133 412.727 11.8C412.727 14.0187 412.215 15.9813 411.191 17.688C410.167 19.3733 408.727 20.6853 406.871 21.624C405.015 22.5413 402.892 23 400.503 23H390.711V0.599998ZM400.311 19.48C401.954 19.48 403.394 19.1707 404.631 18.552C405.89 17.912 406.85 17.016 407.511 15.864C408.194 14.6907 408.535 13.336 408.535 11.8C408.535 10.264 408.194 8.92 407.511 7.768C406.85 6.59467 405.89 5.69867 404.631 5.08C403.394 4.44 401.954 4.12 400.311 4.12H394.871V19.48H400.311ZM427.613 23.32C425.33 23.32 423.271 22.8293 421.437 21.848C419.602 20.8453 418.162 19.4693 417.117 17.72C416.071 15.9493 415.549 13.976 415.549 11.8C415.549 9.624 416.071 7.66133 417.117 5.912C418.162 4.14133 419.602 2.76533 421.437 1.784C423.271 0.781332 425.33 0.279999 427.613 0.279999C429.895 0.279999 431.954 0.781332 433.789 1.784C435.623 2.76533 437.063 4.13067 438.109 5.88C439.154 7.62933 439.677 9.60267 439.677 11.8C439.677 13.9973 439.154 15.9707 438.109 17.72C437.063 19.4693 435.623 20.8453 433.789 21.848C431.954 22.8293 429.895 23.32 427.613 23.32ZM427.613 19.672C429.106 19.672 430.45 19.3413 431.645 18.68C432.839 17.9973 433.778 17.0587 434.461 15.864C435.143 14.648 435.485 13.2933 435.485 11.8C435.485 10.3067 435.143 8.96267 434.461 7.768C433.778 6.552 432.839 5.61333 431.645 4.952C430.45 4.26933 429.106 3.928 427.613 3.928C426.119 3.928 424.775 4.26933 423.581 4.952C422.386 5.61333 421.447 6.552 420.765 7.768C420.082 8.96267 419.741 10.3067 419.741 11.8C419.741 13.2933 420.082 14.648 420.765 15.864C421.447 17.0587 422.386 17.9973 423.581 18.68C424.775 19.3413 426.119 19.672 427.613 19.672ZM460.866 9.848C462.935 10.104 464.514 10.808 465.602 11.96C466.69 13.112 467.234 14.552 467.234 16.28C467.234 17.5813 466.903 18.7653 466.242 19.832C465.581 20.8987 464.578 21.752 463.234 22.392C461.911 23.0107 460.29 23.32 458.37 23.32C456.77 23.32 455.223 23.096 453.73 22.648C452.258 22.1787 450.999 21.5387 449.954 20.728L451.746 17.496C452.557 18.1787 453.538 18.7227 454.69 19.128C455.863 19.512 457.069 19.704 458.306 19.704C459.778 19.704 460.93 19.4053 461.762 18.808C462.615 18.1893 463.042 17.3573 463.042 16.312C463.042 15.2667 462.637 14.456 461.826 13.88C461.037 13.2827 459.821 12.984 458.178 12.984H456.13V10.136L461.218 4.088H451.042V0.599998H466.306V3.384L460.866 9.848ZM471.555 0.599998H481.347C483.736 0.599998 485.859 1.06933 487.715 2.008C489.571 2.92533 491.011 4.23733 492.035 5.944C493.059 7.62933 493.571 9.58133 493.571 11.8C493.571 14.0187 493.059 15.9813 492.035 17.688C491.011 19.3733 489.571 20.6853 487.715 21.624C485.859 22.5413 483.736 23 481.347 23H471.555V0.599998ZM481.155 19.48C482.798 19.48 484.238 19.1707 485.475 18.552C486.734 17.912 487.694 17.016 488.355 15.864C489.038 14.6907 489.379 13.336 489.379 11.8C489.379 10.264 489.038 8.92 488.355 7.768C487.694 6.59467 486.734 5.69867 485.475 5.08C484.238 4.44 482.798 4.12 481.155 4.12H475.715V19.48H481.155Z" fill="url(#paint0_linear_109_810)"/>
<defs>
<linearGradient id="paint0_linear_109_810" x1="0.999999" y1="12" x2="495" y2="12" gradientUnits="userSpaceOnUse">
<stop stop-color="#F1E178"/>
<stop offset="1" stop-color="#B87E13"/>
</linearGradient>
</defs>
</svg>
