<svg width="48" height="48" viewBox="0 0 48 48" fill="none" xmlns="http://www.w3.org/2000/svg">
<path d="M12.5576 35.4893L14.1733 29.5891C13.1767 27.8622 12.6525 25.9034 12.6532 23.8965C12.6558 17.6184 17.7648 12.5107 24.0427 12.5107C27.0893 12.512 29.9488 13.6978 32.0992 15.85C34.2494 18.0022 35.4332 20.863 35.4321 23.9057C35.4294 30.1836 30.3196 35.2921 24.0427 35.2921C24.0424 35.2921 24.0429 35.2921 24.0427 35.2921H24.0378C22.1317 35.2913 20.2589 34.8132 18.5953 33.906L12.5576 35.4893ZM18.8749 31.8447L19.2208 32.0496C20.674 32.9121 22.34 33.3682 24.0391 33.3691H24.0427C29.2602 33.3691 33.5067 29.1233 33.5089 23.9049C33.5099 21.3761 32.5262 18.9981 30.7389 17.2093C28.9514 15.4206 26.5749 14.4349 24.0462 14.4338C18.8246 14.4338 14.5782 18.6791 14.5762 23.8973C14.5754 25.6855 15.0757 27.4268 16.0234 28.9337L16.2487 29.2919L15.2921 32.7841L18.8749 31.8447Z" fill="#B87E13"/>
<path fill-rule="evenodd" clip-rule="evenodd" d="M21.1957 19.1365C20.9826 18.6627 20.7581 18.6531 20.5552 18.6449C20.3893 18.6378 20.1995 18.6381 20.0099 18.6381C19.8202 18.6381 19.5119 18.7095 19.2512 18.9943C18.9902 19.279 18.2549 19.9675 18.2549 21.3677C18.2549 22.7681 19.2748 24.1211 19.4171 24.3111C19.5593 24.501 21.3858 27.4662 24.2783 28.607C26.6823 29.5551 27.1714 29.3665 27.6932 29.3191C28.2151 29.2717 29.3769 28.6306 29.614 27.9661C29.8513 27.3016 29.8513 26.7322 29.7801 26.613C29.7088 26.4945 29.5191 26.4233 29.2346 26.281C28.95 26.1387 27.5509 25.4501 27.29 25.3552C27.0291 25.2602 26.8394 25.2129 26.6497 25.4978C26.4598 25.7824 25.9149 26.4233 25.7488 26.613C25.5827 26.8032 25.4167 26.827 25.1321 26.6846C24.8476 26.5419 23.931 26.2416 22.8437 25.2721C21.9977 24.5179 21.4264 23.5862 21.2604 23.3013C21.0945 23.0168 21.2576 22.8761 21.3854 22.7207C21.6156 22.4407 22.0018 21.9373 22.0966 21.7476C22.1915 21.5576 22.144 21.3915 22.073 21.249C22.0018 21.1068 21.4486 19.6994 21.1957 19.1365Z" fill="#B87E13"/>
</svg>
